<svg xmlns="http://www.w3.org/2000/svg" xmlns:xlink="http://www.w3.org/1999/xlink" viewBox="0 0 14.63 14.57"><defs><style>.cls-1{fill:url(#linear-gradient);}</style><linearGradient id="linear-gradient" y1="7.28" x2="14.63" y2="7.28" gradientUnits="userSpaceOnUse"><stop offset="0" stop-color="#ff2c6d"/><stop offset="1" stop-color="#7fe4ff"/></linearGradient></defs><g id="Layer_2" data-name="Layer 2"><g id="Layer_1-2" data-name="Layer 1"><path class="cls-1" d="M14.27,8.3a.49.49,0,0,0-.43.1,5.49,5.49,0,0,1-1.66,1,5.33,5.33,0,0,1-1.89.34A5.5,5.5,0,0,1,4.79,4.2a5.68,5.68,0,0,1,.3-1.81A4.81,4.81,0,0,1,6,.78.48.48,0,0,0,5.91.11.52.52,0,0,0,5.48,0a7.54,7.54,0,0,0-4,2.66,7.4,7.4,0,0,0,.65,9.73,7.34,7.34,0,0,0,5.24,2.17A7.44,7.44,0,0,0,12,13a7.36,7.36,0,0,0,2.62-4.1A.45.45,0,0,0,14.27,8.3Z"/></g></g></svg>