<svg xmlns="http://www.w3.org/2000/svg" xmlns:xlink="http://www.w3.org/1999/xlink" viewBox="0 0 401.19 44.52"><defs><style>.cls-1{fill:#fff;}.cls-2{fill:#8c99cd;}.cls-3{fill:url(#linear-gradient);}</style><linearGradient id="linear-gradient" x1="38" y1="188.54" x2="82.52" y2="188.54" gradientTransform="translate(-38 -179)" gradientUnits="userSpaceOnUse"><stop offset="0" stop-color="#3479f3"/><stop offset="1" stop-color="#7fe4ff"/></linearGradient></defs><g id="Layer_2" data-name="Layer 2"><g id="Layer_1-2" data-name="Layer 1"><path class="cls-1" d="M193.37,30a8,8,0,0,1-6.18-2.32Q185,25.39,185,20.58c0-3.36.75-5.84,2.25-7.41s3.67-2.36,6.49-2.36a11,11,0,0,1,1.93.16,12.08,12.08,0,0,1,1.67.4,5.08,5.08,0,0,1,1.14.54q.42.3.42.57a1.62,1.62,0,0,1-.16.6,4.67,4.67,0,0,1-.36.67c-.14.2-.27.3-.4.3a1.89,1.89,0,0,1-.63-.3,6.67,6.67,0,0,0-1.38-.59,6.76,6.76,0,0,0-2.17-.3,7,7,0,0,0-3.77.89,4.87,4.87,0,0,0-2,2.56,12,12,0,0,0-.6,4,15.42,15.42,0,0,0,.27,2.93,7,7,0,0,0,.95,2.44,4.66,4.66,0,0,0,1.85,1.66,6.4,6.4,0,0,0,3,.61,16.6,16.6,0,0,0,2.31-.15,7.94,7.94,0,0,0,1.5-.31l-.33,1V22.17h-3.15q-.54,0-.54-.81v-.43q0-.81.54-.81h4.72a.72.72,0,0,1,.81.81v7.16a1.14,1.14,0,0,1-.5.94,3.86,3.86,0,0,1-1.35.6,13.69,13.69,0,0,1-1.93.31C194.89,30,194.14,30,193.37,30Z"/><path class="cls-1" d="M205.14,29.92c-.72,0-1.08-.2-1.08-.59V19.85A18.05,18.05,0,0,0,204,18c0-.49-.11-.86-.16-1.12a3.15,3.15,0,0,1-.08-.45.37.37,0,0,1,.17-.31,1.62,1.62,0,0,1,.42-.19,2.81,2.81,0,0,1,.49-.09l.38,0a.56.56,0,0,1,.5.3,2.77,2.77,0,0,1,.27.71l.17.77a5.92,5.92,0,0,1,1.5-1.5,2.91,2.91,0,0,1,1.63-.52,2.2,2.2,0,0,1,1.18.25.89.89,0,0,1,.39.8,2.82,2.82,0,0,1-.07.59,2.31,2.31,0,0,1-.19.61c-.08.17-.17.26-.28.26a1,1,0,0,1-.53-.15,2.1,2.1,0,0,0-1-.15,2.15,2.15,0,0,0-1.27.4,6.32,6.32,0,0,0-1.21,1.25v9.88c0,.39-.36.59-1.08.59Z"/><path class="cls-1" d="M216.91,30a5.4,5.4,0,0,1-3.29-1A3.58,3.58,0,0,1,212.3,26a4.13,4.13,0,0,1,.81-2.69,4.77,4.77,0,0,1,2.13-1.45,11.29,11.29,0,0,1,2.9-.61c1.06-.09,2.1-.14,3.12-.16V19.8a2.27,2.27,0,0,0-.65-1.6,3.2,3.2,0,0,0-2.32-.67,7.07,7.07,0,0,0-2.12.28,8.44,8.44,0,0,0-1.43.57,2.1,2.1,0,0,1-.66.28c-.13,0-.26-.09-.41-.27a3,3,0,0,1-.37-.6,1.44,1.44,0,0,1-.17-.48c0-.23.24-.48.71-.75a7,7,0,0,1,1.86-.69,10.49,10.49,0,0,1,2.51-.28,7.21,7.21,0,0,1,2.86.5,4,4,0,0,1,1.82,1.44,4,4,0,0,1,.64,2.3v6a18.42,18.42,0,0,0,.08,1.84c0,.49.11.85.16,1.11a2.56,2.56,0,0,1,.08.45.4.4,0,0,1-.17.32,1.33,1.33,0,0,1-.42.18,2.84,2.84,0,0,1-.49.1l-.38,0a.55.55,0,0,1-.49-.31,2.51,2.51,0,0,1-.27-.76c-.07-.3-.13-.57-.18-.82a6.59,6.59,0,0,1-1.19,1,5.8,5.8,0,0,1-1.5.73A5.9,5.9,0,0,1,216.91,30Zm.11-2a4.82,4.82,0,0,0,2.46-.57,10.51,10.51,0,0,0,1.78-1.29V23c-.7,0-1.43,0-2.19.07a11.87,11.87,0,0,0-2.13.31,3.51,3.51,0,0,0-1.61.82,2.18,2.18,0,0,0-.6,1.64,2.16,2.16,0,0,0,.58,1.64A2.34,2.34,0,0,0,217,28.06Z"/><path class="cls-1" d="M229.09,35.49q-1.08,0-1.08-.6v-15a18.05,18.05,0,0,0-.08-1.83c-.05-.49-.11-.86-.16-1.12a3.15,3.15,0,0,1-.08-.45.35.35,0,0,1,.17-.31,1.62,1.62,0,0,1,.42-.19,2.65,2.65,0,0,1,.49-.09l.37,0a.54.54,0,0,1,.5.3,2.19,2.19,0,0,1,.27.71c.07.28.13.54.18.77a7.09,7.09,0,0,1,2.07-1.52,5.07,5.07,0,0,1,2.22-.5,4.39,4.39,0,0,1,2.85.94A5.8,5.8,0,0,1,239,19.11a10.5,10.5,0,0,1,.61,3.71,8.16,8.16,0,0,1-1.54,5.36A4.9,4.9,0,0,1,234.14,30a5.48,5.48,0,0,1-2.16-.39,7.79,7.79,0,0,1-1.7-1v6.24q0,.6-1.08.6ZM233.63,28a3.06,3.06,0,0,0,2.71-1.31,6.5,6.5,0,0,0,.9-3.71,7.8,7.8,0,0,0-.86-4,2.73,2.73,0,0,0-2.46-1.41,4.12,4.12,0,0,0-1.85.47,6.16,6.16,0,0,0-1.79,1.39v7.4a5.3,5.3,0,0,0,1.58.9A5,5,0,0,0,233.63,28Z"/><path class="cls-1" d="M244.72,29.92c-.72,0-1.08-.2-1.08-.59V10.16q0-.6,1.08-.6h.11q1.08,0,1.08.6v7.29a7.47,7.47,0,0,1,1.77-1.28,4.83,4.83,0,0,1,2.36-.58,5.86,5.86,0,0,1,1.39.17,4.08,4.08,0,0,1,1.41.64,3.27,3.27,0,0,1,1.08,1.32,5.14,5.14,0,0,1,.42,2.24v9.37c0,.39-.36.59-1.08.59h-.11c-.72,0-1.08-.2-1.08-.59V20.18a2.63,2.63,0,0,0-.69-1.91,2.78,2.78,0,0,0-2.07-.71,3.23,3.23,0,0,0-1.37.28,4.71,4.71,0,0,0-1.08.66,7.72,7.72,0,0,0-1,.95v9.88c0,.39-.36.59-1.08.59Z"/><path class="cls-1" d="M260,13.8a1.86,1.86,0,0,1-.92-.16.49.49,0,0,1-.27-.43V11.59a.49.49,0,0,1,.27-.43A1.86,1.86,0,0,1,260,11a2.17,2.17,0,0,1,.91.14.48.48,0,0,1,.27.45v1.62a.49.49,0,0,1-.27.43A1.84,1.84,0,0,1,260,13.8ZM260,29.92c-.72,0-1.08-.2-1.08-.59v-13q0-.6,1.08-.6h.11q1.08,0,1.08.6v13c0,.39-.36.59-1.08.59Z"/><path class="cls-1" d="M267,29.92c-.72,0-1.08-.2-1.08-.59V19.85a18.05,18.05,0,0,0-.08-1.83c-.05-.49-.11-.86-.16-1.12a3.15,3.15,0,0,1-.08-.45.37.37,0,0,1,.17-.31,1.62,1.62,0,0,1,.42-.19,2.81,2.81,0,0,1,.49-.09l.38,0a.54.54,0,0,1,.49.3,2.19,2.19,0,0,1,.27.71c.07.28.13.54.18.77a6.54,6.54,0,0,1,2-1.48,5.09,5.09,0,0,1,2.24-.54,4.34,4.34,0,0,1,3.24,1.16A4.3,4.3,0,0,1,276.58,20v9.37c0,.39-.36.59-1.08.59h-.1c-.72,0-1.08-.2-1.08-.59V20.18a2.53,2.53,0,0,0-.72-1.93,2.83,2.83,0,0,0-2-.69,3.67,3.67,0,0,0-1.82.51,5.3,5.3,0,0,0-1.58,1.38v9.88c0,.39-.36.59-1.08.59Z"/><path class="cls-1" d="M285.44,35.59a11.13,11.13,0,0,1-2.84-.33,4,4,0,0,1-1.94-1.12,3,3,0,0,1-.7-2.08,3.32,3.32,0,0,1,.67-2.08,4.1,4.1,0,0,1,1.68-1.33l0,0a3,3,0,0,1-.74-.92,2.73,2.73,0,0,1-.28-1.29,2.79,2.79,0,0,1,.38-1.5,3.33,3.33,0,0,1,1.08-1.1A3.86,3.86,0,0,1,281,22.21a4.43,4.43,0,0,1-.58-2.22,4.22,4.22,0,0,1,.61-2.23,4.3,4.3,0,0,1,1.8-1.58,6.4,6.4,0,0,1,2.91-.59,7.63,7.63,0,0,1,.84,0,4.47,4.47,0,0,1,.76.12h4.91q.54,0,.54.81v.32q0,.81-.54.81c-.22,0-.54,0-1-.05s-.8-.08-1.11-.14l0,.06a3.15,3.15,0,0,1,.72,1.16,4.2,4.2,0,0,1,.17,1.27,4.27,4.27,0,0,1-.6,2.24,4.32,4.32,0,0,1-1.78,1.59,6.43,6.43,0,0,1-2.93.59,3.55,3.55,0,0,0-1.8.38,1.38,1.38,0,0,0-.63,1.27,1.26,1.26,0,0,0,.62,1.18,4.15,4.15,0,0,0,1.58.48l2,.26a9.47,9.47,0,0,1,2.2.5,3.43,3.43,0,0,1,1.56,1.08,3,3,0,0,1,.58,2,3.44,3.44,0,0,1-.71,2.2A4.55,4.55,0,0,1,289,35.11,11.31,11.31,0,0,1,285.44,35.59Zm.3-1.86a6.86,6.86,0,0,0,3-.5,1.65,1.65,0,0,0,1-1.58,1.29,1.29,0,0,0-.63-1.19,4.3,4.3,0,0,0-1.61-.52c-.64-.1-1.31-.18-2-.25a8.75,8.75,0,0,1-1.81-.33,3.07,3.07,0,0,0-1.12.83,2.08,2.08,0,0,0-.48,1.43,1.72,1.72,0,0,0,.85,1.62A6,6,0,0,0,285.74,33.73Zm0-11.21A4.34,4.34,0,0,0,288,22a2.09,2.09,0,0,0,.93-2,2.1,2.1,0,0,0-.93-2,4.35,4.35,0,0,0-2.22-.54,4.3,4.3,0,0,0-2.22.54,2.11,2.11,0,0,0-.92,2,2.11,2.11,0,0,0,.92,2A4.29,4.29,0,0,0,285.74,22.52Z"/><path class="cls-1" d="M303.26,29.87a.72.72,0,0,1-.81-.81V11.51q0-.6,1.08-.6h.21q1.08,0,1.08.6V27.82h7.43q.54,0,.54.81v.43q0,.81-.54.81Z"/><path class="cls-1" d="M316.49,13.8a1.89,1.89,0,0,1-.92-.16.49.49,0,0,1-.27-.43V11.59a.49.49,0,0,1,.27-.43,1.89,1.89,0,0,1,.92-.16,2.23,2.23,0,0,1,.92.14.48.48,0,0,1,.27.45v1.62a.49.49,0,0,1-.27.43A1.89,1.89,0,0,1,316.49,13.8Zm-.06,16.12c-.72,0-1.08-.2-1.08-.59v-13q0-.6,1.08-.6h.11q1.08,0,1.08.6v13c0,.39-.36.59-1.08.59Z"/><path class="cls-1" d="M328.72,30a5.22,5.22,0,0,1-2.23-.5A7.06,7.06,0,0,1,324.43,28,5.65,5.65,0,0,1,324,29.6a.49.49,0,0,1-.25.26,1.56,1.56,0,0,1-.48.06h-.1c-.54,0-.81-.2-.81-.59V10.16q0-.6,1.08-.6h.11q1.08,0,1.08.6V17a7.24,7.24,0,0,1,1.7-1,5.68,5.68,0,0,1,2.16-.37,4.88,4.88,0,0,1,3.94,1.85A8.2,8.2,0,0,1,334,22.79a10.07,10.07,0,0,1-.64,3.74,5.84,5.84,0,0,1-1.81,2.57A4.35,4.35,0,0,1,328.72,30Zm-.46-2a2.73,2.73,0,0,0,2.46-1.42,7.84,7.84,0,0,0,.86-4,6.53,6.53,0,0,0-.9-3.72A3.1,3.1,0,0,0,328,17.58a5.4,5.4,0,0,0-1.74.3,4.94,4.94,0,0,0-1.6.92v7.4a6.07,6.07,0,0,0,1.79,1.39A4.26,4.26,0,0,0,328.26,28.06Z"/><path class="cls-1" d="M338.93,29.92c-.72,0-1.08-.2-1.08-.59V19.85a15.24,15.24,0,0,0-.09-1.83,9.84,9.84,0,0,0-.16-1.12c-.05-.27-.08-.41-.08-.45a.36.36,0,0,1,.18-.31,1.36,1.36,0,0,1,.42-.19,2.7,2.7,0,0,1,.48-.09l.38,0a.55.55,0,0,1,.5.3,2.19,2.19,0,0,1,.27.71l.17.77a5.92,5.92,0,0,1,1.5-1.5,2.94,2.94,0,0,1,1.64-.52,2.17,2.17,0,0,1,1.17.25.89.89,0,0,1,.39.8,2.82,2.82,0,0,1-.07.59,2.32,2.32,0,0,1-.18.61c-.09.17-.18.26-.29.26a1,1,0,0,1-.52-.15,2.15,2.15,0,0,0-1-.15,2.13,2.13,0,0,0-1.27.4,6.33,6.33,0,0,0-1.22,1.25v9.88c0,.39-.36.59-1.08.59Z"/><path class="cls-1" d="M350.7,30a5.41,5.41,0,0,1-3.3-1A3.58,3.58,0,0,1,346.08,26a4.13,4.13,0,0,1,.81-2.69A4.77,4.77,0,0,1,349,21.84a11.28,11.28,0,0,1,2.91-.61c1.05-.09,2.09-.14,3.11-.16V19.8a2.26,2.26,0,0,0-.64-1.6,3.24,3.24,0,0,0-2.33-.67,7.12,7.12,0,0,0-2.12.28,8.44,8.44,0,0,0-1.43.57,2.1,2.1,0,0,1-.66.28.57.57,0,0,1-.4-.27,3.06,3.06,0,0,1-.38-.6,1.35,1.35,0,0,1-.16-.48c0-.23.23-.48.7-.75a7.28,7.28,0,0,1,1.86-.69,10.55,10.55,0,0,1,2.51-.28,7.21,7.21,0,0,1,2.86.5,4,4,0,0,1,1.83,1.44,4.06,4.06,0,0,1,.63,2.3v6a18.42,18.42,0,0,0,.08,1.84c.06.49.11.85.16,1.11a3.17,3.17,0,0,1,.09.45.38.38,0,0,1-.18.32,1.33,1.33,0,0,1-.42.18,2.73,2.73,0,0,1-.48.1l-.38,0a.56.56,0,0,1-.5-.31,2.51,2.51,0,0,1-.27-.76c-.06-.3-.12-.57-.18-.82a6.87,6.87,0,0,1-1.18,1,5.8,5.8,0,0,1-1.5.73A5.94,5.94,0,0,1,350.7,30Zm.1-2a4.79,4.79,0,0,0,2.46-.57A10.51,10.51,0,0,0,355,26.2V23c-.7,0-1.43,0-2.18.07a11.85,11.85,0,0,0-2.14.31,3.48,3.48,0,0,0-1.6.82,2.14,2.14,0,0,0-.61,1.64,2.16,2.16,0,0,0,.58,1.64A2.35,2.35,0,0,0,350.8,28.06Z"/><path class="cls-1" d="M363,29.92c-.72,0-1.08-.2-1.08-.59V19.85a15.53,15.53,0,0,0-.08-1.83c-.05-.49-.11-.86-.16-1.12a3.15,3.15,0,0,1-.08-.45.37.37,0,0,1,.17-.31,1.62,1.62,0,0,1,.42-.19,2.81,2.81,0,0,1,.49-.09l.38,0a.56.56,0,0,1,.5.3,2.77,2.77,0,0,1,.27.71l.17.77a5.92,5.92,0,0,1,1.5-1.5,2.91,2.91,0,0,1,1.63-.52,2.18,2.18,0,0,1,1.18.25.89.89,0,0,1,.39.8,2.82,2.82,0,0,1-.07.59,2.31,2.31,0,0,1-.19.61c-.08.17-.17.26-.28.26a1,1,0,0,1-.53-.15,2.5,2.5,0,0,0-2.22.25,6.06,6.06,0,0,0-1.22,1.25v9.88c0,.39-.36.59-1.08.59Z"/><path class="cls-1" d="M372.94,13.8a1.84,1.84,0,0,1-.91-.16.49.49,0,0,1-.27-.43V11.59a.49.49,0,0,1,.27-.43,1.84,1.84,0,0,1,.91-.16,2.19,2.19,0,0,1,.92.14.48.48,0,0,1,.27.45v1.62a.49.49,0,0,1-.27.43A1.86,1.86,0,0,1,372.94,13.8Zm-.05,16.12c-.72,0-1.08-.2-1.08-.59v-13q0-.6,1.08-.6H373q1.08,0,1.08.6v13c0,.39-.36.59-1.08.59Z"/><path class="cls-1" d="M384.61,30a6.49,6.49,0,0,1-5-1.75Q378,26.53,378,22.9a9.9,9.9,0,0,1,.72-4,5.24,5.24,0,0,1,2.12-2.46,6.71,6.71,0,0,1,3.46-.83,5.51,5.51,0,0,1,3.09.81,5,5,0,0,1,1.85,2.37,10.62,10.62,0,0,1,.62,3.86.89.89,0,0,1-.15.42,2.07,2.07,0,0,1-.37.47.57.57,0,0,1-.37.22h-8.54A5.21,5.21,0,0,0,381.59,27a3.89,3.89,0,0,0,3,1.06,6.19,6.19,0,0,0,2-.29,7.41,7.41,0,0,0,1.31-.56,2,2,0,0,1,.62-.29c.13,0,.26.09.41.27a3.6,3.6,0,0,1,.38.6,1.19,1.19,0,0,1,.16.48c0,.17-.13.35-.38.54a4.29,4.29,0,0,1-1,.57,8.6,8.6,0,0,1-1.54.45A10.25,10.25,0,0,1,384.61,30Zm-4.19-8.23h7a5.24,5.24,0,0,0-.81-3.2,2.86,2.86,0,0,0-2.43-1.07,3.42,3.42,0,0,0-2.7,1.07A5.2,5.2,0,0,0,380.42,21.8Z"/><path class="cls-1" d="M396.41,30.11a7.43,7.43,0,0,1-2.19-.3,5.16,5.16,0,0,1-1.54-.7c-.38-.27-.57-.5-.57-.7a1.2,1.2,0,0,1,.17-.48,3.57,3.57,0,0,1,.37-.6c.15-.18.28-.27.41-.27a1.42,1.42,0,0,1,.49.27,4.9,4.9,0,0,0,1.06.54,4.51,4.51,0,0,0,1.64.27c1.76,0,2.64-.66,2.64-2a1.74,1.74,0,0,0-.77-1.58,8.11,8.11,0,0,0-1.93-.87,15.37,15.37,0,0,1-1.81-.77,3.77,3.77,0,0,1-1.4-1.26,3.9,3.9,0,0,1-.54-2.19,3.59,3.59,0,0,1,.58-2,3.91,3.91,0,0,1,1.59-1.39,5.23,5.23,0,0,1,2.31-.5,8.69,8.69,0,0,1,1.73.16,5,5,0,0,1,1.32.43q.51.27.51.57a1.78,1.78,0,0,1-.14.57,4,4,0,0,1-.34.62c-.13.18-.25.27-.38.27a3.33,3.33,0,0,1-.73-.35,3.46,3.46,0,0,0-1.73-.35,3,3,0,0,0-1.7.47,1.5,1.5,0,0,0-.7,1.33,1.66,1.66,0,0,0,.43,1.21,4.41,4.41,0,0,0,1.68.85,12.15,12.15,0,0,1,2.21,1,4.35,4.35,0,0,1,1.54,1.4,3.89,3.89,0,0,1,.57,2.2,3.81,3.81,0,0,1-.64,2.16,4.46,4.46,0,0,1-1.71,1.5A5.24,5.24,0,0,1,396.41,30.11Z"/><path class="cls-1" d="M90.14,33.83h0a2.23,2.23,0,0,1-2.23-2.23V9.26A2.23,2.23,0,0,1,90.14,7h0a2.23,2.23,0,0,1,2.23,2.23V31.6A2.23,2.23,0,0,1,90.14,33.83Z"/><path class="cls-1" d="M137.05,33.83h0a2.23,2.23,0,0,1-2.24-2.23V9.26A2.23,2.23,0,0,1,137.05,7h0a2.23,2.23,0,0,1,2.23,2.23V31.6A2.23,2.23,0,0,1,137.05,33.83Z"/><path class="cls-1" d="M74.51,11.49a8.47,8.47,0,0,0-4.64,1.39,2.23,2.23,0,0,0-4.3.85V36.06a2.24,2.24,0,1,0,4.47,0V32.55a8.47,8.47,0,0,0,4.47,1.28c4.93,0,8.93-4.28,8.93-9.57V21.07C83.44,15.78,79.44,11.49,74.51,11.49Zm4.46,13a4.48,4.48,0,1,1-8.93,0V20.84a4.48,4.48,0,1,1,8.93,0Z"/><path class="cls-1" d="M105.78,11.49h0c-4.94,0-8.94,4.29-8.94,9.58v3.19c0,5.29,4,9.57,8.94,9.57h0c4.93,0,8.93-4.28,8.93-9.57V21.07C114.71,15.78,110.71,11.49,105.78,11.49Zm4.46,13a4.48,4.48,0,1,1-8.93,0V20.84a4.48,4.48,0,1,1,8.93,0Z"/><path class="cls-1" d="M128.11,29.36a4.46,4.46,0,0,1-4.46-4.46V16h4.46a2.24,2.24,0,1,0,0-4.47h-4.46V9.26a2.24,2.24,0,0,0-4.47,0V24.9a9,9,0,0,0,8.93,8.93,2.24,2.24,0,1,0,0-4.47Z"/><path class="cls-1" d="M159.49,11.68a2.23,2.23,0,0,0-2.94,1.17l-4.63,10.8-4.63-10.8a2.24,2.24,0,0,0-4.11,1.76l6.31,14.71-.75,1.75a4.47,4.47,0,0,1-4,2.75,2.24,2.24,0,0,0,.05,4.47h0a8.94,8.94,0,0,0,8-5.48l7.8-18.2A2.23,2.23,0,0,0,159.49,11.68Z"/><circle class="cls-2" cx="28.62" cy="15.9" r="3.18"/><circle class="cls-2" cx="41.34" cy="3.18" r="3.18"/><circle class="cls-2" cx="28.62" cy="3.18" r="3.18"/><circle class="cls-2" cx="15.9" cy="3.18" r="3.18"/><circle class="cls-2" cx="3.18" cy="3.18" r="3.18"/><circle class="cls-2" cx="3.18" cy="15.9" r="3.18"/><circle class="cls-3" cx="28.62" cy="15.9" r="3.18"/><circle class="cls-3" cx="41.34" cy="3.18" r="3.18"/><circle class="cls-3" cx="28.62" cy="3.18" r="3.18"/><circle class="cls-3" cx="15.9" cy="3.18" r="3.18"/><circle class="cls-3" cx="3.18" cy="3.18" r="3.18"/><circle class="cls-3" cx="3.18" cy="15.9" r="3.18"/><path class="cls-1" d="M3.18,25.44A3.18,3.18,0,0,0,0,28.62V41.34a3.18,3.18,0,0,0,6.36,0V28.62A3.18,3.18,0,0,0,3.18,25.44Z"/><path class="cls-1" d="M28.62,25.44a3.18,3.18,0,0,0-3.18,3.18V41.34a3.18,3.18,0,0,0,6.36,0V28.62A3.18,3.18,0,0,0,28.62,25.44Z"/><path class="cls-1" d="M15.9,12.72a3.18,3.18,0,0,0-3.18,3.18V41.34a3.18,3.18,0,1,0,6.36,0V15.9A3.18,3.18,0,0,0,15.9,12.72Z"/><path class="cls-1" d="M41.34,12.72a3.18,3.18,0,0,0-3.18,3.18V41.34a3.18,3.18,0,1,0,6.36,0V15.9A3.18,3.18,0,0,0,41.34,12.72Z"/><path class="cls-1" d="M171.1,5.44V37.3a1.07,1.07,0,0,0,2.13,0V5.44a1.07,1.07,0,0,0-2.13,0Z"/></g></g></svg>