<svg xmlns="http://www.w3.org/2000/svg" xmlns:xlink="http://www.w3.org/1999/xlink" viewBox="0 0 15.16 15.16"><defs><style>.cls-1{fill:#ffbd48;}.cls-2{fill:url(#linear-gradient);}</style><linearGradient id="linear-gradient" x1="21" y1="659.58" x2="36.16" y2="659.58" gradientTransform="translate(-21 -652)" gradientUnits="userSpaceOnUse"><stop offset="0" stop-color="#ff2c6d"/><stop offset="1" stop-color="#7fe4ff"/></linearGradient></defs><g id="Layer_2" data-name="Layer 2"><g id="Layer_1-2" data-name="Layer 1"><path class="cls-1" d="M7.58,3.78a3.8,3.8,0,1,0,3.8,3.8A3.81,3.81,0,0,0,7.58,3.78Z"/><path class="cls-1" d="M7.58,2.67a.74.74,0,0,1-.74-.74V.74a.74.74,0,0,1,1.48,0V1.93A.74.74,0,0,1,7.58,2.67Z"/><path class="cls-1" d="M7.58,12.5a.74.74,0,0,0-.74.74v1.18a.74.74,0,0,0,1.48,0V13.24A.74.74,0,0,0,7.58,12.5Z"/><path class="cls-1" d="M11.06,4.11a.74.74,0,0,1,0-1.05l.83-.84a.74.74,0,0,1,1,1l-.84.84A.73.73,0,0,1,11.06,4.11Z"/><path class="cls-1" d="M4.11,11.06a.74.74,0,0,0-1.05,0l-.84.83a.74.74,0,0,0,1,1l.84-.84A.73.73,0,0,0,4.11,11.06Z"/><path class="cls-1" d="M12.5,7.58a.74.74,0,0,1,.74-.74h1.18a.74.74,0,0,1,0,1.48H13.24A.74.74,0,0,1,12.5,7.58Z"/><path class="cls-1" d="M2.67,7.58a.74.74,0,0,0-.74-.74H.74a.74.74,0,0,0,0,1.48H1.93A.74.74,0,0,0,2.67,7.58Z"/><path class="cls-1" d="M11.06,11.06a.73.73,0,0,1,1,0l.84.84a.73.73,0,0,1,0,1,.74.74,0,0,1-1,0l-.83-.84A.73.73,0,0,1,11.06,11.06Z"/><path class="cls-1" d="M4.11,4.11a.74.74,0,0,0,0-1.05l-.84-.84a.74.74,0,0,0-1,1l.84.84A.74.74,0,0,0,4.11,4.11Z"/><path class="cls-2" d="M7.58,3.78a3.8,3.8,0,1,0,3.8,3.8A3.81,3.81,0,0,0,7.58,3.78Z"/><path class="cls-2" d="M7.58,2.67a.74.74,0,0,1-.74-.74V.74a.74.74,0,0,1,1.48,0V1.93A.74.74,0,0,1,7.58,2.67Z"/><path class="cls-2" d="M7.58,12.5a.74.74,0,0,0-.74.74v1.18a.74.74,0,0,0,1.48,0V13.24A.74.74,0,0,0,7.58,12.5Z"/><path class="cls-2" d="M11.06,4.11a.74.74,0,0,1,0-1.05l.83-.84a.74.74,0,0,1,1,1l-.84.84A.73.73,0,0,1,11.06,4.11Z"/><path class="cls-2" d="M4.11,11.06a.74.74,0,0,0-1.05,0l-.84.83a.74.74,0,0,0,1,1l.84-.84A.73.73,0,0,0,4.11,11.06Z"/><path class="cls-2" d="M12.5,7.58a.74.74,0,0,1,.74-.74h1.18a.74.74,0,0,1,0,1.48H13.24A.74.74,0,0,1,12.5,7.58Z"/><path class="cls-2" d="M2.67,7.58a.74.74,0,0,0-.74-.74H.74a.74.74,0,0,0,0,1.48H1.93A.74.74,0,0,0,2.67,7.58Z"/><path class="cls-2" d="M11.06,11.06a.73.73,0,0,1,1,0l.84.84a.73.73,0,0,1,0,1,.74.74,0,0,1-1,0l-.83-.84A.73.73,0,0,1,11.06,11.06Z"/><path class="cls-2" d="M4.11,4.11a.74.74,0,0,0,0-1.05l-.84-.84a.74.74,0,0,0-1,1l.84.84A.74.74,0,0,0,4.11,4.11Z"/></g></g></svg>