<svg width="105" height="95" viewBox="0 0 105 95" fill="none" xmlns="http://www.w3.org/2000/svg">
<path d="M12.3206 95C11.3355 95 10.3604 94.696 9.5759 94.106C8.2721 93.127 7.7734 91.5683 8.3044 90.1358L13.2703 76.7462C9.3187 72.8509 6.1777 68.4411 3.9199 63.6163C1.3193 58.0572 0 52.1659 0 46.1065C0 40.0472 1.3888 33.845 4.1274 28.1588C6.7715 22.6679 10.5566 17.7377 15.3772 13.5042C20.1978 9.2706 25.8121 5.9464 32.0637 3.6242C38.5383 1.21917 45.4142 0 52.5 0C59.5858 0 66.4617 1.21917 72.9363 3.6242C79.1885 5.9464 84.8022 9.2706 89.623 13.5042C94.443 17.7377 98.228 22.6684 100.873 28.1588C103.611 33.845 105 39.8836 105 46.1065C105 52.3295 103.611 58.3681 100.873 64.0543C98.228 69.5452 94.443 74.4753 89.623 78.7089C84.8022 82.9425 79.1879 86.2667 72.9363 88.5888C66.4617 90.9939 59.5858 92.2136 52.5 92.2136C48.2018 92.2136 43.926 91.7554 39.7899 90.851C36.3333 90.0955 32.9637 89.0263 29.7488 87.667L14.2393 94.595C13.63 94.867 12.9728 95 12.3206 95ZM52.5 5.828C46.3068 5.828 40.3011 6.8928 34.6489 8.9919C29.1879 11.0206 24.2829 13.9253 20.0698 17.6254C15.8567 21.3254 12.5492 25.6332 10.2399 30.4291C7.8492 35.3931 6.6373 40.6675 6.6373 46.1065C6.6373 56.5592 11.1778 66.467 19.422 74.0046C20.2704 74.7803 20.5636 75.9034 20.1841 76.9262L16.417 87.0833L28.2345 81.8046C29.1917 81.3769 30.3252 81.3829 31.2768 81.8198C34.4849 83.2938 37.8886 84.4289 41.393 85.1953C45.0049 85.9847 48.7416 86.385 52.5 86.385C58.6932 86.385 64.6989 85.3203 70.3511 83.2212C75.8121 81.1925 80.7171 78.2878 84.9302 74.5877C89.143 70.8877 92.451 66.5799 94.76 61.784C97.151 56.82 98.363 51.5456 98.363 46.1065C98.363 40.6675 97.15 35.3931 94.76 30.4291C92.45 25.6332 89.143 21.3254 84.9302 17.6254C80.7171 13.9253 75.8121 11.0206 70.3511 8.9919C64.6989 6.8923 58.6932 5.828 52.5 5.828Z" fill="white"/>
<path d="M55.3011 31.1277C55.0607 31.0293 54.8421 30.8842 54.658 30.7009C54.4739 30.5175 54.3279 30.2994 54.2285 30.0593L52.6321 26.4322C52.3333 25.856 51.4739 25.856 51.1919 26.4322L49.5939 30.061C49.3775 30.5344 48.997 30.9134 48.5229 31.1277L46.4851 32.008C46.3511 32.0704 46.2376 32.1697 46.1581 32.2944C46.0786 32.4191 46.0363 32.564 46.0363 32.7119C46.0363 32.8599 46.0786 33.0047 46.1581 33.1294C46.2376 33.2541 46.3511 33.3535 46.4851 33.4158L48.5229 34.2961C49.0148 34.4994 49.4008 34.8892 49.5939 35.3646L51.1919 39.0084C51.4907 39.5847 52.3501 39.5847 52.6321 39.0084L54.2301 35.3629C54.4416 34.8892 54.8277 34.5162 55.3011 34.2961L57.3389 33.4158C57.4729 33.3535 57.5864 33.2541 57.6659 33.1294C57.7454 33.0047 57.7877 32.8599 57.7877 32.7119C57.7877 32.564 57.7454 32.4191 57.6659 32.2944C57.5864 32.1697 57.4729 32.0704 57.3389 32.008L55.3011 31.1277ZM80.5706 42.0525C79.1111 41.3979 77.957 40.2097 77.3443 38.7312L72.5402 27.3613C72.3438 26.9534 72.0364 26.6093 71.6534 26.3685C71.2703 26.1277 70.8272 26 70.3748 26C69.9225 26 69.4793 26.1277 69.0962 26.3685C68.7132 26.6093 68.4058 26.9534 68.2094 27.3613L63.4036 38.7312C62.7811 40.2026 61.6307 41.3874 60.1791 42.0525L54.0992 44.8077C52.2998 45.698 52.2998 48.302 54.0992 49.1924L60.1791 51.9475C61.6377 52.6026 62.7912 53.7907 63.4036 55.2688L68.2094 66.6387C68.4058 67.0466 68.7132 67.3907 69.0962 67.6315C69.4793 67.8723 69.9225 68 70.3748 68C70.8272 68 71.2703 67.8723 71.6534 67.6315C72.0364 67.3907 72.3438 67.0466 72.5402 66.6387L77.346 55.2688C77.9686 53.7974 79.1189 52.6126 80.5706 51.9475L86.6504 49.1924C88.4499 48.302 88.4499 45.698 86.6504 44.8077L80.5706 42.0525ZM51.5427 53.4343C51.8113 54.0928 52.3048 54.6035 52.9225 54.8992L55.5243 56.1171C55.7003 56.2088 55.8477 56.3471 55.9506 56.5168C56.0535 56.6865 56.108 56.8812 56.108 57.0798C56.108 57.2783 56.0535 57.473 55.9506 57.6428C55.8477 57.8125 55.7003 57.9507 55.5243 58.0424L52.9225 59.2604C52.3048 59.556 51.813 60.0835 51.5427 60.7253L49.4814 65.7265C49.3991 65.9035 49.268 66.0532 49.1036 66.1581C48.9391 66.263 48.7482 66.3188 48.5531 66.3188C48.3581 66.3188 48.1672 66.263 48.0027 66.1581C47.8383 66.0532 47.7072 65.9035 47.6249 65.7265L45.5652 60.7253C45.3042 60.0817 44.812 59.5592 44.1854 59.2604L41.5836 58.0424C41.4077 57.9507 41.2602 57.8125 41.1573 57.6428C41.0544 57.473 41 57.2783 41 57.0798C41 56.8812 41.0544 56.6865 41.1573 56.5168C41.2602 56.3471 41.4077 56.2088 41.5836 56.1171L44.1854 54.8992C44.8032 54.6035 45.295 54.076 45.5652 53.4343L47.6266 48.433C47.7089 48.2561 47.84 48.1063 48.0044 48.0014C48.1688 47.8965 48.3598 47.8408 48.5548 47.8408C48.7498 47.8408 48.9408 47.8965 49.1052 48.0014C49.2697 48.1063 49.4008 48.2561 49.4831 48.433L51.541 53.4343H51.5427Z" fill="white"/>
</svg>
